<svg width="188" height="35" viewBox="0 0 188 35" fill="none" xmlns="http://www.w3.org/2000/svg">
<path fill-rule="evenodd" clip-rule="evenodd" d="M181.711 25.647L2.47124 34.539H179.756L181.711 25.647Z" fill="url(#paint0_linear_5_17)"/>
<path fill-rule="evenodd" clip-rule="evenodd" d="M15.7862 5.11645C12.5739 5.11645 10.0599 6.18722 8.24417 8.23562C7.31306 9.25982 6.61472 10.5168 6.14916 11.9134C5.6836 13.3101 5.49738 14.8929 5.54394 16.662C5.59049 18.4311 5.86983 19.9674 6.38194 21.364C6.89406 22.7141 7.63895 23.9245 8.61662 24.8556C10.5254 26.8109 13.0394 27.6955 16.2518 27.5558C19.371 27.4161 21.7919 26.2988 23.561 24.2504C24.4456 23.2262 25.1439 22.0623 25.5164 20.6657C25.8888 19.3156 26.1216 17.7793 26.1216 16.1034C26.0751 14.3808 25.8423 12.8911 25.3767 11.541C24.9112 10.1909 24.2128 9.02705 23.2817 8.04941C21.3729 6.04756 18.9055 5.0699 15.7862 5.11645ZM168.955 12.7049C169.374 10.7961 169.839 8.88738 170.258 6.97864C170.677 5.0699 171.096 3.16116 171.515 1.25242C173.378 1.25242 175.24 1.25242 177.056 1.25242C177.381 3.11461 177.707 5.02335 178.033 6.88554C178.359 8.74773 178.685 10.6099 179.011 12.4721C179.43 10.6099 179.849 8.74773 180.221 6.88554C180.64 5.02335 181.059 3.16117 181.478 1.29898C183.341 1.29898 185.203 1.29898 187.112 1.29898C186.32 4.88369 185.482 8.42184 184.737 12.0065C183.946 15.5913 183.154 19.176 182.363 22.7607C180.314 22.8538 178.266 22.9934 176.171 23.0865C175.845 21.1313 175.473 19.176 175.1 17.2207C174.774 15.2654 174.402 13.2635 174.029 11.3082C173.564 13.3101 173.098 15.3119 172.679 17.3138C172.214 19.3156 171.795 21.3175 171.329 23.3193C169.188 23.4124 166.999 23.5521 164.811 23.6452C164.113 19.9674 163.415 16.2896 162.716 12.5652C162.018 8.84083 161.32 5.06991 160.621 1.29898C162.716 1.29898 164.765 1.29898 166.813 1.29898C167.139 3.20772 167.512 5.11646 167.838 7.07175C168.257 8.88739 168.629 10.7961 168.955 12.7049ZM150.845 0.367889C153.731 0.367889 156.199 1.43864 158.061 3.81293C158.992 5.02335 159.644 6.41998 160.016 7.90973C160.389 9.39948 160.575 10.9823 160.528 12.6118C160.482 14.2412 160.249 15.824 159.83 17.3138C159.411 18.8035 158.713 20.2002 157.688 21.5037C155.78 23.9711 153.266 25.135 150.379 25.2746C147.493 25.4143 144.885 24.5297 142.93 22.1555C141.906 20.945 141.208 19.5018 140.789 17.9655C140.37 16.4292 140.183 14.7998 140.23 13.0773C140.276 11.4013 140.463 9.72536 140.928 8.14251C141.394 6.55965 142.185 5.11646 143.21 3.81293C145.305 1.43864 147.912 0.367889 150.845 0.367889ZM150.752 5.76822C149.355 5.76822 148.238 6.32688 147.353 7.5373C146.236 9.0736 145.91 11.122 145.863 12.9842C145.817 14.8464 146.096 16.8482 147.167 18.338C148.005 19.5018 149.122 19.9674 150.472 19.9208C151.869 19.8743 152.94 19.3156 153.824 18.0587C154.895 16.5224 155.221 14.5671 155.221 12.7049C155.267 10.8892 154.988 8.88738 154.01 7.39763C153.219 6.23376 152.148 5.76822 150.752 5.76822ZM131.012 20.526C131.058 17.2672 131.105 14.055 131.105 10.7961C131.152 7.5373 131.152 4.27848 131.198 1.01965C129.382 1.01965 127.66 1.01965 125.844 1.01965C125.798 5.20957 125.751 9.35293 125.705 13.5428C125.658 17.6862 125.611 21.8296 125.565 25.9729C130.733 25.6936 135.761 25.4608 140.695 25.1815C140.742 23.5055 140.742 21.8296 140.789 20.1536C137.623 20.2467 134.317 20.3864 131.012 20.526ZM113.181 6.04755C113.181 7.58385 113.134 9.12015 113.134 10.6565C116.067 10.6099 118.954 10.5633 121.794 10.4702C121.747 12.0065 121.747 13.5894 121.747 15.1257C118.861 15.2188 116.021 15.3119 113.088 15.3585C113.088 17.1741 113.088 18.9897 113.041 20.8054C113.041 22.621 112.995 24.4366 112.995 26.2057C111.272 26.2988 109.55 26.3919 107.827 26.485C107.827 22.2951 107.874 18.1052 107.874 13.9153C107.874 9.67881 107.92 5.4889 107.92 1.25242C112.948 1.25242 117.883 1.25242 122.725 1.25242C122.678 2.83528 122.678 4.37159 122.678 5.90789C119.606 6.001 116.44 6.00099 113.181 6.04755ZM94.3724 9.81848C95.3036 8.42184 96.1881 7.07175 97.1192 5.67512C98.0504 4.32503 98.9815 2.92838 99.866 1.5783C101.635 1.5783 103.404 1.5783 105.173 1.5783C103.823 3.58015 102.427 5.62855 101.123 7.6304C99.7729 9.67881 98.4228 11.7272 97.0727 13.7756C98.5159 15.9171 99.9591 18.0121 101.356 20.1536C102.752 22.2486 104.149 24.297 105.592 26.3919C103.823 26.485 102.101 26.5782 100.332 26.6713C99.3074 25.1815 98.2366 23.6918 97.2123 22.1555C96.1881 20.6192 95.1639 19.1294 94.1397 17.5931C93.0689 19.2225 91.9981 20.8054 90.9273 22.4348C89.8565 24.0642 88.7857 25.6936 87.715 27.323C85.8527 27.4161 83.9439 27.5092 82.0817 27.6024C83.618 25.2281 85.2475 22.9003 86.7838 20.5726C88.3202 18.2449 89.9031 15.9171 91.4394 13.636C90.0893 11.6807 88.7392 9.67881 87.3425 7.72352C85.9458 5.72167 84.5492 3.71982 83.1525 1.67141C85.0147 1.67141 86.9235 1.67141 88.7857 1.67141C89.7169 3.06805 90.6945 4.41813 91.5791 5.81477C92.5102 7.07175 93.4413 8.46839 94.3724 9.81848ZM66.6252 5.86133C66.6252 8.00285 66.6717 10.0978 66.6717 12.2393C70.8617 12.1462 75.0518 12.0531 79.1021 12.0065C79.1021 13.2635 79.1021 14.567 79.1021 15.824C75.0518 15.9171 70.9083 16.0568 66.7183 16.1499C66.7183 17.5 66.7183 18.8035 66.7183 20.1536C66.7183 21.5037 66.7648 22.8072 66.7648 24.1573C71.2342 23.9711 75.657 23.7849 79.9867 23.5987C79.9867 24.8556 79.9867 26.1126 79.9867 27.3696C74.1207 27.6489 68.115 27.9748 62.0161 28.2541C61.9696 23.878 61.923 19.5484 61.923 15.1257C61.8765 10.7496 61.8765 6.32688 61.8299 1.90419C67.8822 1.90419 73.7948 1.90419 79.6143 1.90419C79.6143 3.16116 79.6143 4.4647 79.6143 5.72167C75.3311 5.76823 71.0014 5.81478 66.6252 5.86133ZM42.2299 18.4776C42.2765 20.2467 42.2765 21.9692 42.2765 23.7383C42.2765 25.5074 42.323 27.2299 42.3696 28.9524C40.8333 29.0455 39.2969 29.0921 37.8071 29.1852C37.7606 24.716 37.714 20.2467 37.6209 15.7775C37.5743 11.3082 37.5278 6.79242 37.4347 2.27662C40.5539 2.27662 43.6266 2.27662 46.6993 2.27662C49.3064 2.27662 52.0998 2.69562 54.1482 4.27848C56.0104 5.76823 56.6157 7.90974 56.6622 10.1444C56.6622 12.379 56.1036 14.567 54.2413 16.1034C52.286 17.7328 49.4461 18.2449 46.8855 18.338C45.3492 18.3845 43.7663 18.4311 42.2299 18.4776ZM42.0903 5.67512C42.0903 7.25797 42.1368 8.79428 42.1368 10.3771C42.1368 11.9134 42.1834 13.4963 42.1834 15.0326C43.7197 14.986 45.2561 14.9395 46.839 14.9395C48.2356 14.8929 49.7254 14.6136 50.7496 13.636C51.7739 12.7049 52.0998 11.4944 52.0998 10.1909C52.0998 8.93393 51.7273 7.67696 50.6565 6.79242C49.5857 5.86133 48.1425 5.62856 46.6993 5.62856C45.2095 5.67511 43.6266 5.67512 42.0903 5.67512ZM15.7397 2.0904C20.1625 2.0904 23.7473 3.34738 26.4009 5.90789C27.7045 7.16486 28.6822 8.65461 29.334 10.3306C29.9857 12.0065 30.3582 13.9153 30.4047 16.0102C30.4513 18.1052 30.1254 20.0139 29.5202 21.7365C28.915 23.4124 27.9838 24.9487 26.7268 26.2523C24.1663 28.9059 20.6746 30.3025 16.2518 30.5353C11.6893 30.7681 8.01139 29.6507 5.17149 27.1834C3.72826 25.9264 2.65747 24.4366 1.91258 22.7141C1.16769 20.9916 0.79524 18.9897 0.748685 16.7551C0.702129 14.5205 0.981468 12.5186 1.63325 10.7496C2.28503 8.98049 3.30926 7.39763 4.65938 6.04755C7.49928 3.39393 11.1306 2.0904 15.7397 2.0904Z" fill="#0B074B"/>
<defs>
<linearGradient id="paint0_linear_5_17" x1="276.71" y1="30.0893" x2="-81.6444" y2="30.0893" gradientUnits="userSpaceOnUse">
<stop stop-color="#E61300"/>
<stop offset="1" stop-color="#A10A00"/>
</linearGradient>
</defs>
</svg>
